<svg width="132" height="38" viewBox="0 0 132 38" fill="none" xmlns="http://www.w3.org/2000/svg">
<g clip-path="url(#clip0_996_1210)">
<g clip-path="url(#clip1_996_1210)">
<path d="M16.12 37.91C14.37 37.91 12.9 37.42 11.71 36.44C10.52 35.46 9.61998 33.99 9.00998 32.03L-0.400024 1.39999H5.15998L14.03 30.64C14.24 31.28 14.51 31.76 14.83 32.08C15.15 32.4 15.58 32.56 16.11 32.56C16.64 32.56 17.08 32.4 17.42 32.08C17.76 31.76 18.02 31.28 18.2 30.64L26.97 1.39999H32.58L23.17 32.03C22.56 33.99 21.66 35.46 20.47 36.44C19.28 37.42 17.82 37.91 16.11 37.91H16.12Z" fill="white"/>
<path d="M56.44 37.59C53.84 37.59 51.42 37.12 49.2 36.17C46.97 35.23 45.02 33.92 43.35 32.24C41.67 30.57 40.36 28.6 39.42 26.33C38.48 24.07 38 21.62 38 18.98C38 16.34 38.47 13.96 39.42 11.74C40.36 9.51001 41.67 7.56001 43.35 5.89001C45.03 4.22001 46.98 2.91001 49.2 1.96001C51.42 1.01001 53.84 0.540009 56.44 0.540009C59.04 0.540009 61.45 1.01001 63.66 1.96001C65.87 2.90001 67.81 4.21001 69.49 5.89001C71.16 7.57001 72.46 9.52001 73.39 11.74C74.32 13.97 74.78 16.38 74.78 18.98C74.78 21.58 74.32 24.07 73.39 26.33C72.46 28.59 71.16 30.56 69.49 32.24C67.82 33.92 65.87 35.23 63.66 36.17C61.45 37.11 59.04 37.59 56.44 37.59ZM56.44 32.4C58.19 32.4 59.84 32.05 61.39 31.36C62.94 30.66 64.3 29.71 65.48 28.5C66.66 27.29 67.56 25.87 68.21 24.25C68.85 22.63 69.17 20.87 69.17 18.98C69.17 17.09 68.85 15.4 68.21 13.79C67.57 12.19 66.66 10.78 65.48 9.57001C64.3 8.36001 62.95 7.41001 61.42 6.74001C59.89 6.06001 58.23 5.72001 56.45 5.72001C54.67 5.72001 52.99 6.06001 51.43 6.74001C49.86 7.42001 48.5 8.36001 47.34 9.57001C46.18 10.78 45.27 12.19 44.61 13.79C43.95 15.39 43.62 17.12 43.62 18.98C43.62 20.84 43.95 22.62 44.61 24.25C45.27 25.87 46.18 27.29 47.34 28.5C48.5 29.71 49.86 30.67 51.43 31.36C53 32.05 54.67 32.4 56.45 32.4H56.44Z" fill="white"/>
<path d="M97.55 37.59C94.95 37.59 92.53 37.12 90.31 36.17C88.09 35.22 86.13 33.92 84.46 32.24C82.78 30.57 81.47 28.6 80.53 26.33C79.59 24.07 79.11 21.62 79.11 18.98C79.11 16.34 79.58 13.96 80.53 11.74C81.47 9.51001 82.78 7.56001 84.46 5.89001C86.14 4.22001 88.09 2.91001 90.31 1.96001C92.53 1.01001 94.95 0.540009 97.55 0.540009C100.15 0.540009 102.56 1.01001 104.77 1.96001C106.98 2.90001 108.92 4.21001 110.6 5.89001C112.27 7.57001 113.57 9.52001 114.5 11.74C115.43 13.97 115.89 16.38 115.89 18.98C115.89 21.58 115.43 24.07 114.5 26.33C113.57 28.59 112.27 30.56 110.6 32.24C108.93 33.92 106.98 35.23 104.77 36.17C102.56 37.11 100.15 37.59 97.55 37.59ZM97.55 32.4C99.3 32.4 100.95 32.05 102.5 31.36C104.05 30.66 105.41 29.71 106.59 28.5C107.77 27.29 108.67 25.87 109.32 24.25C109.96 22.63 110.28 20.87 110.28 18.98C110.28 17.09 109.96 15.4 109.32 13.79C108.68 12.19 107.77 10.78 106.59 9.57001C105.41 8.36001 104.06 7.41001 102.53 6.74001C101 6.06001 99.34 5.72001 97.56 5.72001C95.78 5.72001 94.1 6.06001 92.54 6.74001C90.97 7.42001 89.61 8.36001 88.45 9.57001C87.29 10.78 86.38 12.19 85.72 13.79C85.06 15.39 84.73 17.12 84.73 18.98C84.73 20.84 85.06 22.62 85.72 24.25C86.38 25.87 87.29 27.29 88.45 28.5C89.61 29.71 90.97 30.67 92.54 31.36C94.11 32.05 95.78 32.4 97.56 32.4H97.55Z" fill="white"/>
<path d="M131.98 37.56H126.53V1.74001H131.98V37.56Z" fill="white"/>
</g>
</g>
<defs>
<clipPath id="clip0_996_1210">
<rect width="132" height="38" fill="white"/>
</clipPath>
<clipPath id="clip1_996_1210">
<rect width="132" height="38" fill="white"/>
</clipPath>
</defs>
</svg>
