<svg width="100" height="100" viewBox="0 0 100 100" fill="none" xmlns="http://www.w3.org/2000/svg">
<path fill-rule="evenodd" clip-rule="evenodd" d="M50 100C77.6142 100 100 77.6142 100 50C100 22.3858 77.6142 0 50 0C22.3858 0 0 22.3858 0 50C0 77.6142 22.3858 100 50 100ZM40.8 82.2439L66 75.2239V68.4919L40.8 61.5079V65.5399L63.552 71.6239V72.0919L40.8 78.2119V82.2439ZM37.096 57.5039C34 57.5039 31.54 56.6399 29.716 54.9119C27.892 53.1599 26.98 50.6399 26.98 47.3519V41.4479C26.98 38.1599 27.892 35.6519 29.716 33.9239C31.54 32.1719 34 31.2959 37.096 31.2959C40.192 31.2959 42.652 32.1719 44.476 33.9239C46.324 35.6519 47.248 38.1599 47.248 41.4479V47.3519C47.248 50.6399 46.324 53.1599 44.476 54.9119C42.652 56.6399 40.192 57.5039 37.096 57.5039ZM37.096 54.0119C39.088 54.0119 40.624 53.4359 41.704 52.2839C42.784 51.1079 43.324 49.5119 43.324 47.4959V41.3039C43.324 39.2879 42.784 37.7039 41.704 36.5519C40.624 35.3759 39.088 34.7879 37.096 34.7879C35.152 34.7879 33.628 35.3759 32.524 36.5519C31.42 37.7039 30.868 39.2879 30.868 41.3039V47.4959C30.868 49.5119 31.42 51.1079 32.524 52.2839C33.628 53.4359 35.152 54.0119 37.096 54.0119ZM61.3187 57.5039C58.2227 57.5039 55.7627 56.6399 53.9387 54.9119C52.1147 53.1599 51.2027 50.6399 51.2027 47.3519V41.4479C51.2027 38.1599 52.1147 35.6519 53.9387 33.9239C55.7627 32.1719 58.2227 31.2959 61.3187 31.2959C64.4146 31.2959 66.8747 32.1719 68.6987 33.9239C70.5467 35.6519 71.4707 38.1599 71.4707 41.4479V47.3519C71.4707 50.6399 70.5467 53.1599 68.6987 54.9119C66.8747 56.6399 64.4146 57.5039 61.3187 57.5039ZM61.3187 54.0119C63.3107 54.0119 64.8467 53.4359 65.9267 52.2839C67.0067 51.1079 67.5467 49.5119 67.5467 47.4959V41.3039C67.5467 39.2879 67.0067 37.7039 65.9267 36.5519C64.8467 35.3759 63.3107 34.7879 61.3187 34.7879C59.3747 34.7879 57.8507 35.3759 56.7467 36.5519C55.6427 37.7039 55.0907 39.2879 55.0907 41.3039V47.4959C55.0907 49.5119 55.6427 51.1079 56.7467 52.2839C57.8507 53.4359 59.3747 54.0119 61.3187 54.0119ZM62.2 19.6279L37 19.6279V23.5159L62.2 23.5159V19.6279Z" fill="url(#paint0_radial_2722_9)"/>
<defs>
<radialGradient id="paint0_radial_2722_9" cx="0" cy="0" r="1" gradientUnits="userSpaceOnUse" gradientTransform="rotate(45) scale(141.421)">
<stop offset="0.205" stop-color="#ECA79B"/>
<stop offset="0.607422" stop-color="#C15549"/>
<stop offset="0.800781" stop-color="#3A4B85"/>
</radialGradient>
</defs>
</svg>
