<svg width="278" height="100" viewBox="0 0 278 100" fill="none" xmlns="http://www.w3.org/2000/svg">
<path d="M139.552 75.408L125.512 25.008H133.576L145.816 70.512H146.752L158.92 25.008H166.984L153.016 75.408H139.552Z" fill="white"/>
<path d="M191.715 76.416C185.523 76.416 180.603 74.688 176.955 71.232C173.307 67.728 171.483 62.688 171.483 56.112V44.304C171.483 37.728 173.307 32.712 176.955 29.256C180.603 25.752 185.523 24 191.715 24C197.907 24 202.827 25.752 206.475 29.256C210.171 32.712 212.019 37.728 212.019 44.304V56.112C212.019 62.688 210.171 67.728 206.475 71.232C202.827 74.688 197.907 76.416 191.715 76.416ZM191.715 69.432C195.699 69.432 198.771 68.28 200.931 65.976C203.091 63.624 204.171 60.432 204.171 56.4V44.016C204.171 39.984 203.091 36.816 200.931 34.512C198.771 32.16 195.699 30.984 191.715 30.984C187.827 30.984 184.779 32.16 182.571 34.512C180.363 36.816 179.259 39.984 179.259 44.016V56.4C179.259 60.432 180.363 63.624 182.571 65.976C184.779 68.28 187.827 69.432 191.715 69.432Z" fill="white"/>
<path d="M240.161 76.416C233.969 76.416 229.049 74.688 225.401 71.232C221.753 67.728 219.929 62.688 219.929 56.112V44.304C219.929 37.728 221.753 32.712 225.401 29.256C229.049 25.752 233.969 24 240.161 24C246.353 24 251.273 25.752 254.921 29.256C258.617 32.712 260.465 37.728 260.465 44.304V56.112C260.465 62.688 258.617 67.728 254.921 71.232C251.273 74.688 246.353 76.416 240.161 76.416ZM240.161 69.432C244.145 69.432 247.217 68.28 249.377 65.976C251.537 63.624 252.617 60.432 252.617 56.4V44.016C252.617 39.984 251.537 36.816 249.377 34.512C247.217 32.16 244.145 30.984 240.161 30.984C236.273 30.984 233.225 32.16 231.017 34.512C228.809 36.816 227.705 39.984 227.705 44.016V56.4C227.705 60.432 228.809 63.624 231.017 65.976C233.225 68.28 236.273 69.432 240.161 69.432Z" fill="white"/>
<path d="M269.67 75.408V25.008H277.446V75.408H269.67Z" fill="white"/>
<path fill-rule="evenodd" clip-rule="evenodd" d="M50 100C77.6142 100 100 77.6142 100 50C100 22.3858 77.6142 0 50 0C22.3858 0 0 22.3858 0 50C0 77.6142 22.3858 100 50 100ZM40.8 82.2439L66 75.2239V68.4919L40.8 61.5079V65.5399L63.552 71.6239V72.0919L40.8 78.2119V82.2439ZM37.096 57.5039C34 57.5039 31.54 56.6399 29.716 54.9119C27.892 53.1599 26.98 50.6399 26.98 47.3519V41.4479C26.98 38.1599 27.892 35.6519 29.716 33.9239C31.54 32.1719 34 31.2959 37.096 31.2959C40.192 31.2959 42.652 32.1719 44.476 33.9239C46.324 35.6519 47.248 38.1599 47.248 41.4479V47.3519C47.248 50.6399 46.324 53.1599 44.476 54.9119C42.652 56.6399 40.192 57.5039 37.096 57.5039ZM37.096 54.0119C39.088 54.0119 40.624 53.4359 41.704 52.2839C42.784 51.1079 43.324 49.5119 43.324 47.4959V41.3039C43.324 39.2879 42.784 37.7039 41.704 36.5519C40.624 35.3759 39.088 34.7879 37.096 34.7879C35.152 34.7879 33.628 35.3759 32.524 36.5519C31.42 37.7039 30.868 39.2879 30.868 41.3039V47.4959C30.868 49.5119 31.42 51.1079 32.524 52.2839C33.628 53.4359 35.152 54.0119 37.096 54.0119ZM61.3187 57.5039C58.2227 57.5039 55.7627 56.6399 53.9387 54.9119C52.1147 53.1599 51.2027 50.6399 51.2027 47.3519V41.4479C51.2027 38.1599 52.1147 35.6519 53.9387 33.9239C55.7627 32.1719 58.2227 31.2959 61.3187 31.2959C64.4146 31.2959 66.8747 32.1719 68.6987 33.9239C70.5467 35.6519 71.4707 38.1599 71.4707 41.4479V47.3519C71.4707 50.6399 70.5467 53.1599 68.6987 54.9119C66.8747 56.6399 64.4146 57.5039 61.3187 57.5039ZM61.3187 54.0119C63.3107 54.0119 64.8467 53.4359 65.9267 52.2839C67.0067 51.1079 67.5467 49.5119 67.5467 47.4959V41.3039C67.5467 39.2879 67.0067 37.7039 65.9267 36.5519C64.8467 35.3759 63.3107 34.7879 61.3187 34.7879C59.3747 34.7879 57.8507 35.3759 56.7467 36.5519C55.6427 37.7039 55.0907 39.2879 55.0907 41.3039V47.4959C55.0907 49.5119 55.6427 51.1079 56.7467 52.2839C57.8507 53.4359 59.3747 54.0119 61.3187 54.0119ZM62.2 19.6279L37 19.6279V23.5159L62.2 23.5159V19.6279Z" fill="white"/>
</svg>
