<svg width="66" height="66" viewBox="0 0 66 66" fill="none" xmlns="http://www.w3.org/2000/svg">
<g clip-path="url(#clip0_996_1168)">
<path fill-rule="evenodd" clip-rule="evenodd" d="M66 33C66 51.2254 51.2254 66 33 66C14.7746 66 0 51.2254 0 33C0 14.7746 14.7746 0 33 0C51.2254 0 66 14.7746 66 33ZM25.1196 17.3404V14.9424L40.8804 10.0848V12.4828L25.1196 17.3404ZM49.4868 48.3824C49.9176 47.8593 50.1332 47.2132 50.1336 46.4442C50.1332 45.6927 49.9176 45.0511 49.4868 44.528C49.0556 44.0044 48.4088 43.6084 47.5464 43.34L34.0692 39.1996V41.668L46.9348 45.5268C47.2164 45.606 47.4276 45.7204 47.5684 45.87C47.7092 46.0196 47.7796 46.2132 47.7796 46.4464C47.7796 46.6796 47.7092 46.8688 47.5684 47.0096C47.4276 47.1504 47.2164 47.2692 46.9348 47.3616L34.0692 51.2644V53.7108L47.5464 49.5704C48.4088 49.302 49.0556 48.906 49.4868 48.3824ZM23.98 37.3868C22.836 37.3868 21.7712 37.18 20.7944 36.762C19.8176 36.344 18.9552 35.772 18.2204 35.0328C17.4812 34.298 16.9048 33.4312 16.4912 32.4324C16.0776 31.438 15.8664 30.36 15.8664 29.1984C15.8664 28.0368 16.0732 26.9896 16.4912 26.0128C16.9048 25.0316 17.4812 24.1736 18.2204 23.4388C18.9596 22.704 19.8176 22.1276 20.7944 21.7096C21.7712 21.2916 22.836 21.0848 23.98 21.0848C25.124 21.0848 26.1844 21.2916 27.1568 21.7096C28.1292 22.1232 28.9828 22.6996 29.722 23.4388C30.4568 24.178 31.0288 25.036 31.438 26.0128C31.8472 26.994 32.0496 28.0544 32.0496 29.1984C32.0496 30.3424 31.8472 31.438 31.438 32.4324C31.0288 33.4268 30.4568 34.2936 29.722 35.0328C28.9872 35.772 28.1292 36.3484 27.1568 36.762C26.1844 37.1756 25.124 37.3868 23.98 37.3868ZM23.9822 35.1076C24.7514 35.1073 25.4766 34.9533 26.158 34.65C26.84 34.342 27.4384 33.924 27.9576 33.3916C28.4768 32.8592 28.8728 32.2344 29.1588 31.5216C29.4404 30.8088 29.5812 30.0344 29.5812 29.2028C29.5812 28.3712 29.4404 27.6276 29.1588 26.9192C28.8772 26.2152 28.4768 25.5948 27.9576 25.0624C27.4384 24.53 26.8444 24.112 26.1712 23.8172C25.498 23.518 24.7676 23.3684 23.9844 23.3684C23.2012 23.3684 22.462 23.518 21.7756 23.8172C21.0848 24.1164 20.4864 24.53 19.976 25.0624C19.4656 25.5948 19.0652 26.2152 18.7748 26.9192C18.4844 27.6232 18.3392 28.3844 18.3392 29.2028C18.3392 30.0212 18.4844 30.8044 18.7748 31.5216C19.0652 32.2344 19.4656 32.8592 19.976 33.3916C20.4864 33.924 21.0848 34.3464 21.7756 34.65C22.4657 34.9533 23.1998 35.1073 23.9822 35.1076ZM38.8828 36.762C39.8596 37.18 40.9244 37.3868 42.0684 37.3868C43.2124 37.3868 44.2728 37.1756 45.2452 36.762C46.2176 36.3484 47.0756 35.772 47.8104 35.0328C48.5452 34.2936 49.1172 33.4268 49.5264 32.4324C49.9356 31.438 50.138 30.3424 50.138 29.1984C50.138 28.0544 49.9356 26.994 49.5264 26.0128C49.1172 25.036 48.5452 24.178 47.8104 23.4388C47.0712 22.6996 46.2176 22.1232 45.2452 21.7096C44.2728 21.2916 43.2124 21.0848 42.0684 21.0848C40.9244 21.0848 39.8596 21.2916 38.8828 21.7096C37.906 22.1276 37.048 22.704 36.3088 23.4388C35.5696 24.1736 34.9932 25.0316 34.5796 26.0128C34.1616 26.9896 33.9548 28.0368 33.9548 29.1984C33.9548 30.36 34.166 31.438 34.5796 32.4324C34.9932 33.4312 35.5696 34.298 36.3088 35.0328C37.0436 35.772 37.906 36.344 38.8828 36.762ZM44.2464 34.65C43.565 34.9533 42.8397 35.1073 42.0706 35.1076C41.2882 35.1073 40.5541 34.9533 39.864 34.65C39.1732 34.3464 38.5748 33.924 38.0644 33.3916C37.554 32.8592 37.1536 32.2344 36.8632 31.5216C36.5728 30.8044 36.4276 30.0212 36.4276 29.2028C36.4276 28.3844 36.5728 27.6232 36.8632 26.9192C37.1536 26.2152 37.554 25.5948 38.0644 25.0624C38.5748 24.53 39.1732 24.1164 39.864 23.8172C40.5504 23.518 41.2896 23.3684 42.0728 23.3684C42.856 23.3684 43.5864 23.518 44.2596 23.8172C44.9328 24.112 45.5268 24.53 46.046 25.0624C46.5652 25.5948 46.9656 26.2152 47.2472 26.9192C47.5288 27.6276 47.6696 28.3712 47.6696 29.2028C47.6696 30.0344 47.5288 30.8088 47.2472 31.5216C46.9612 32.2344 46.5652 32.8592 46.046 33.3916C45.5268 33.924 44.9284 34.342 44.2464 34.65Z" fill="black"/>
</g>
<defs>
<clipPath id="clip0_996_1168">
<rect width="66" height="66" fill="white"/>
</clipPath>
</defs>
</svg>
